<svg width="28" height="28" viewBox="0 0 28 28" fill="none" xmlns="http://www.w3.org/2000/svg">
<path fill-rule="evenodd" clip-rule="evenodd" d="M6.99003 6.98995C7.53677 6.44322 8.4232 6.44322 8.96993 6.98995L20.8493 18.8693C21.3961 19.4161 21.3961 20.3025 20.8493 20.8492C20.3026 21.396 19.4162 21.396 18.8694 20.8492L6.99003 8.96985C6.4433 8.42311 6.4433 7.53668 6.99003 6.98995Z" fill="white"/>
<path fill-rule="evenodd" clip-rule="evenodd" d="M6.98995 20.8493C6.44322 20.3026 6.44322 19.4162 6.98995 18.8694L18.8693 6.99003C19.4161 6.4433 20.3025 6.4433 20.8492 6.99003C21.396 7.53677 21.396 8.4232 20.8492 8.96993L8.96985 20.8493C8.42311 21.3961 7.53668 21.3961 6.98995 20.8493Z" fill="white"/>
</svg>
