<svg width="56" height="55" viewBox="0 0 56 55" fill="none" xmlns="http://www.w3.org/2000/svg">
<g filter="url(#filter0_d_1_120)">
<path fill-rule="evenodd" clip-rule="evenodd" d="M22 16.4C22.6628 16.4 23.2 16.9373 23.2 17.6V18.8H24.4C25.0628 18.8 25.6 19.3373 25.6 20C25.6 20.6627 25.0628 21.2 24.4 21.2H23.2V22.4C23.2 23.0627 22.6628 23.6 22 23.6C21.3373 23.6 20.8 23.0627 20.8 22.4V21.2H19.6C18.9373 21.2 18.4 20.6627 18.4 20C18.4 19.3373 18.9373 18.8 19.6 18.8H20.8V17.6C20.8 16.9373 21.3373 16.4 22 16.4ZM22 28.4C22.6628 28.4 23.2 28.9373 23.2 29.6V30.8H24.4C25.0628 30.8 25.6 31.3373 25.6 32C25.6 32.6627 25.0628 33.2 24.4 33.2H23.2V34.4C23.2 35.0627 22.6628 35.6 22 35.6C21.3373 35.6 20.8 35.0627 20.8 34.4V33.2H19.6C18.9373 33.2 18.4 32.6627 18.4 32C18.4 31.3373 18.9373 30.8 19.6 30.8H20.8V29.6C20.8 28.9373 21.3373 28.4 22 28.4Z" fill="#FB923C"/>
<path fill-rule="evenodd" clip-rule="evenodd" d="M30.4 16.4C30.9444 16.4 31.4207 16.7666 31.56 17.2929L32.9751 22.6387L36.9996 24.9606C37.3711 25.1749 37.6 25.5711 37.6 26C37.6 26.4289 37.3711 26.8251 36.9996 27.0394L32.9751 29.3613L31.56 34.7071C31.4207 35.2334 30.9444 35.6 30.4 35.6C29.8555 35.6 29.3792 35.2334 29.2399 34.7071L27.8249 29.3613L23.8004 27.0394C23.4289 26.8251 23.2 26.4288 23.2 26C23.2 25.5711 23.4289 25.1749 23.8004 24.9606L27.8249 22.6387L29.2399 17.2929C29.3792 16.7666 29.8555 16.4 30.4 16.4Z" fill="#FB923C"/>
<rect x="2.5" y="0.5" width="51" height="51" rx="7.5" stroke="#FED6A9"/>
</g>
<defs>
<filter id="filter0_d_1_120" x="0" y="-1" width="56" height="56" filterUnits="userSpaceOnUse" color-interpolation-filters="sRGB">
<feFlood flood-opacity="0" result="BackgroundImageFix"/>
<feColorMatrix in="SourceAlpha" type="matrix" values="0 0 0 0 0 0 0 0 0 0 0 0 0 0 0 0 0 0 127 0" result="hardAlpha"/>
<feOffset dy="1"/>
<feGaussianBlur stdDeviation="1"/>
<feComposite in2="hardAlpha" operator="out"/>
<feColorMatrix type="matrix" values="0 0 0 0 0 0 0 0 0 0 0 0 0 0 0 0 0 0 0.05 0"/>
<feBlend mode="normal" in2="BackgroundImageFix" result="effect1_dropShadow_1_120"/>
<feBlend mode="normal" in="SourceGraphic" in2="effect1_dropShadow_1_120" result="shape"/>
</filter>
</defs>
</svg>
