<svg width="56" height="55" viewBox="0 0 56 55" fill="none" xmlns="http://www.w3.org/2000/svg">
<g filter="url(#filter0_d_1_113)">
<path fill-rule="evenodd" clip-rule="evenodd" d="M29.5607 15.2555C30.0603 15.413 30.4 15.8762 30.4 16.4V22.4L35.2 22.4C35.6474 22.4 36.0577 22.649 36.2644 23.0458C36.471 23.4427 36.4397 23.9216 36.1831 24.2882L27.7831 36.2882C27.4827 36.7172 26.9387 36.902 26.4392 36.7445C25.9397 36.587 25.6 36.1238 25.6 35.6L25.6 29.6H20.8C20.3525 29.6 19.9422 29.3511 19.7356 28.9542C19.529 28.5573 19.5603 28.0784 19.8169 27.7119L28.2169 15.7119C28.5173 15.2828 29.0612 15.0981 29.5607 15.2555Z" fill="#BF83FC"/>
<rect x="2.5" y="0.5" width="51" height="51" rx="7.5" stroke="#EAD6FF"/>
</g>
<defs>
<filter id="filter0_d_1_113" x="0" y="-1" width="56" height="56" filterUnits="userSpaceOnUse" color-interpolation-filters="sRGB">
<feFlood flood-opacity="0" result="BackgroundImageFix"/>
<feColorMatrix in="SourceAlpha" type="matrix" values="0 0 0 0 0 0 0 0 0 0 0 0 0 0 0 0 0 0 127 0" result="hardAlpha"/>
<feOffset dy="1"/>
<feGaussianBlur stdDeviation="1"/>
<feComposite in2="hardAlpha" operator="out"/>
<feColorMatrix type="matrix" values="0 0 0 0 0 0 0 0 0 0 0 0 0 0 0 0 0 0 0.05 0"/>
<feBlend mode="normal" in2="BackgroundImageFix" result="effect1_dropShadow_1_113"/>
<feBlend mode="normal" in="SourceGraphic" in2="effect1_dropShadow_1_113" result="shape"/>
</filter>
</defs>
</svg>
