<svg width="28" height="28" viewBox="0 0 28 28" fill="none" xmlns="http://www.w3.org/2000/svg">
<path fill-rule="evenodd" clip-rule="evenodd" d="M4.20001 6.99998C4.20001 6.22678 4.82681 5.59998 5.60001 5.59998H22.4C23.1732 5.59998 23.8 6.22678 23.8 6.99998C23.8 7.77317 23.1732 8.39998 22.4 8.39998H5.60001C4.82681 8.39998 4.20001 7.77317 4.20001 6.99998Z" fill="white"/>
<path fill-rule="evenodd" clip-rule="evenodd" d="M4.20001 14C4.20001 13.2268 4.82681 12.6 5.60001 12.6H22.4C23.1732 12.6 23.8 13.2268 23.8 14C23.8 14.7732 23.1732 15.4 22.4 15.4H5.60001C4.82681 15.4 4.20001 14.7732 4.20001 14Z" fill="white"/>
<path fill-rule="evenodd" clip-rule="evenodd" d="M4.20001 21C4.20001 20.2268 4.82681 19.6 5.60001 19.6H22.4C23.1732 19.6 23.8 20.2268 23.8 21C23.8 21.7732 23.1732 22.4 22.4 22.4H5.60001C4.82681 22.4 4.20001 21.7732 4.20001 21Z" fill="white"/>
</svg>
