<svg width="56" height="55" viewBox="0 0 56 55" fill="none" xmlns="http://www.w3.org/2000/svg">
<g filter="url(#filter0_d_1_127)">
<path d="M22 24.8V22.4C22 19.0863 24.6863 16.4 28 16.4C31.3137 16.4 34 19.0863 34 22.4V24.8C35.3255 24.8 36.4 25.8745 36.4 27.2V33.2C36.4 34.5255 35.3255 35.6 34 35.6H22C20.6745 35.6 19.6 34.5255 19.6 33.2V27.2C19.6 25.8745 20.6745 24.8 22 24.8ZM31.6 22.4V24.8H24.4V22.4C24.4 20.4118 26.0118 18.8 28 18.8C29.9882 18.8 31.6 20.4118 31.6 22.4Z" fill="#2463EB"/>
<path d="M22 24.8V22.4C22 19.0863 24.6863 16.4 28 16.4C31.3137 16.4 34 19.0863 34 22.4V24.8C35.3255 24.8 36.4 25.8745 36.4 27.2V33.2C36.4 34.5255 35.3255 35.6 34 35.6H22C20.6745 35.6 19.6 34.5255 19.6 33.2V27.2C19.6 25.8745 20.6745 24.8 22 24.8ZM31.6 22.4V24.8H24.4V22.4C24.4 20.4118 26.0118 18.8 28 18.8C29.9882 18.8 31.6 20.4118 31.6 22.4Z" stroke="#2463EB"/>
<rect x="2.5" y="0.5" width="51" height="51" rx="7.5" stroke="#91C3FD"/>
</g>
<defs>
<filter id="filter0_d_1_127" x="0" y="-1" width="56" height="56" filterUnits="userSpaceOnUse" color-interpolation-filters="sRGB">
<feFlood flood-opacity="0" result="BackgroundImageFix"/>
<feColorMatrix in="SourceAlpha" type="matrix" values="0 0 0 0 0 0 0 0 0 0 0 0 0 0 0 0 0 0 127 0" result="hardAlpha"/>
<feOffset dy="1"/>
<feGaussianBlur stdDeviation="1"/>
<feComposite in2="hardAlpha" operator="out"/>
<feColorMatrix type="matrix" values="0 0 0 0 0 0 0 0 0 0 0 0 0 0 0 0 0 0 0.05 0"/>
<feBlend mode="normal" in2="BackgroundImageFix" result="effect1_dropShadow_1_127"/>
<feBlend mode="normal" in="SourceGraphic" in2="effect1_dropShadow_1_127" result="shape"/>
</filter>
</defs>
</svg>
